Coordinates
version=1
nRows=16
nColumns=36
inDegrees=yes

Units are S.I. units (second, meters, Newtons, ...)
If the header above contains a line with 'inDegrees', this indicates whether rotational values are in degrees (yes) or radians (no).

endheader
time	pelvis_tilt	pelvis_list	pelvis_rotation	pelvis_tx	pelvis_ty	pelvis_tz	hip_flexion_r	hip_adduction_r	hip_rotation_r	knee_angle_r	knee_angle_r_beta	ankle_angle_r	subtalar_angle_r	mtp_angle_r	hip_flexion_l	hip_adduction_l	hip_rotation_l	knee_angle_l	knee_angle_l_beta	ankle_angle_l	subtalar_angle_l	mtp_angle_l	lumbar_extension	lumbar_bending	lumbar_rotation	arm_flex_r	arm_add_r	arm_rot_r	elbow_flex_r	pro_sup_r	arm_flex_l	arm_add_l	arm_rot_l	elbow_flex_l	pro_sup_l
      0.43000000	      0.30053689	     -0.70184603	      0.58527096	      0.38429455	      1.13128013	     -0.17993374	     -5.83152153	      7.86624914	      1.44645845	      4.16572404	      0.07270560	      6.74899491	     -1.60894901	     -7.49997765	     29.07038080	     -0.07158966	     -5.03202694	     22.60161564	      0.39447261	      4.43137355	     -6.07833084	     -7.49997765	    -10.61046910	      7.09889217	      1.28501484	      0.36094589	     -8.58041366	    -13.06889736	     40.36969537	     92.13121820	     -6.51062985	     -2.45863854	    -14.13018316	     37.46353206	     97.40067055
      0.44000000	      0.11649848	     -0.72806852	      0.30339382	      0.39332373	      1.13012285	     -0.17993093	     -6.06626516	      7.81713839	      1.46010707	      4.09291137	      0.07143478	      8.53377264	     -1.67984518	     -7.49997843	     29.18993245	     -0.04042072	     -5.50240101	     20.20239445	      0.35259830	      4.47988787	     -5.09586575	     -7.49997843	    -10.57064639	      7.03642592	      1.42142670	      0.57665108	     -8.62177528	    -12.87796411	     40.74762846	     91.41961147	     -6.31460625	     -2.48802684	    -13.97545253	     37.40827214	     96.79575119
      0.45000000	     -0.01297328	     -0.77943037	      0.11800967	      0.40235281	      1.12908407	     -0.18002384	     -6.38758740	      7.80836819	      1.45317708	      3.98538823	      0.06955815	     10.10912011	     -1.90438065	     -7.49997984	     29.19741447	      0.02799017	     -5.94651141	     17.84794448	      0.31150540	      4.37770561	     -4.12419465	     -7.49997984	    -10.56458560	      7.01553265	      1.43283950	      0.67937444	     -8.69777665	    -12.49501798	     41.38509926	     90.89601949	     -6.18622950	     -2.60304795	    -13.44352138	     37.42281102	     96.40556804
      0.46000000	     -0.07555851	     -0.81105756	     -0.16169689	      0.41129368	      1.12806114	     -0.18002159	     -6.77276417	      7.76179841	      1.32212192	      3.95423272	      0.06901438	     11.77585184	     -1.52284613	     -7.49998374	     29.04078727	      0.08995920	     -6.48366334	     15.52359038	      0.27093776	      4.15974421	     -3.22032536	     -7.49998374	    -10.66705282	      6.92652617	      1.69768433	      0.81877395	     -8.64919782	    -13.17461991	     41.73254089	     93.35082658	     -5.92017106	     -2.48595647	    -14.19381206	     37.45671757	     99.18552809
      0.47000000	     -0.05213336	     -0.80556306	     -0.42455831	      0.42021117	      1.12673979	     -0.17990154	     -7.30643445	      7.71838286	      1.54521234	      3.88875784	      0.06787163	     13.07571109	     -1.74407986	     -7.49998407	     28.73572708	      0.19662315	     -7.01476594	     13.29650437	      0.23206778	      3.84827563	     -2.47181409	     -7.49998407	    -10.86016070	      6.77965636	      1.85297033	      0.95426814	     -8.73053651	    -12.87979120	     42.16298260	     92.79505836	     -5.66748866	     -2.63589575	    -13.76836396	     37.34841181	     98.85712818
      0.48000000	     -0.00845190	     -0.81355163	     -0.65763869	      0.42920148	      1.12492719	     -0.17979529	     -7.89086155	      7.70576641	      1.62714980	      3.84575615	      0.06712111	     14.24626224	     -1.70469389	     -7.49998449	     28.42561711	      0.28226519	     -7.54868125	     11.32311837	      0.19762570	      3.63527263	     -1.67908610	     -7.49998449	    -11.04192729	      6.64518176	      1.98815283	      1.04861791	     -8.74137933	    -12.70763904	     42.57634236	     92.20752499	     -5.38707128	     -2.71587939	    -13.39010524	     37.17097554	     98.47523989
      0.49000000	      0.07298686	     -0.79783674	     -0.86637094	      0.43830054	      1.12271704	     -0.17962782	     -8.53696222	      7.68631252	      1.71354541	      3.83528053	      0.06693827	     15.24683741	     -1.75380699	     -7.49998528	     28.07562919	      0.39690826	     -7.91517755	      9.56802131	      0.16699347	      3.36925310	     -1.24665721	     -7.49998528	    -11.25321402	      6.45413670	      2.14334791	      1.13496495	     -8.75500023	    -12.58754600	     42.87377293	     91.35587618	     -5.09807768	     -2.81862364	    -13.08550723	     37.02870580	     97.74676855
      0.50000000	      0.12235692	     -0.78467367	     -1.06606116	      0.44752936	      1.12026741	     -0.17933612	     -9.15162641	      7.68436742	      1.90707018	      3.86937091	      0.06753326	     16.06265278	     -1.97623070	     -7.49998609	     27.80200963	      0.47934004	     -8.21653133	      8.12021752	      0.14172453	      3.19641356	     -0.93421336	     -7.49998609	    -11.41545073	      6.28113211	      2.22998043	      1.22844403	     -8.76178623	    -12.40188774	     43.15636851	     90.52519494	     -4.78683212	     -2.93786175	    -12.65461411	     36.68973513	     96.99101124
      0.51000000	      0.05238497	     -0.76967739	     -1.27092029	      0.45699387	      1.11775316	     -0.17878273	     -9.59419806	      7.68438025	      2.04123854	      4.02461630	      0.07024281	     16.79817617	     -2.18257336	     -7.49998622	     27.68127439	      0.52058989	     -8.42318750	      6.94836360	      0.12127182	      3.00589453	     -0.85562740	     -7.49998622	    -11.41254703	      6.05056132	      2.25436243	      1.32224860	     -8.66988106	    -12.41444691	     43.30035432	     90.63625027	     -4.65750266	     -2.99731319	    -12.68606773	     36.60886213	     97.10510937
      0.52000000	      0.29487725	     -0.70447201	     -1.48563634	      0.46652753	      1.11615575	     -0.17796207	    -10.39787528	      7.61703531	      2.21481965	      4.14521139	      0.07234759	     17.37725403	     -2.32967645	     -7.49998659	     27.21537064	      0.57484514	     -8.61248732	      6.00183902	      0.10475185	      2.89380298	     -0.87545668	     -7.49998659	    -11.88361512	      5.76778683	      2.43687435	      1.40863259	     -8.58923140	    -12.42788811	     43.51779926	     90.94250600	     -4.24619205	     -3.09345635	    -12.66862687	     36.30686231	     97.44103075
      0.53000000	      0.32277534	     -0.66407025	     -1.69567616	      0.47633059	      1.11477573	     -0.17694002	    -10.88209808	      7.57196400	      2.32485677	      4.43326561	      0.07737508	     17.92304407	     -2.54302835	     -7.49998906	     27.03164425	      0.56315461	     -8.72151227	      5.38297916	      0.09395071	      2.80035604	     -1.04177110	     -7.49998906	    -11.98386165	      5.53231924	      2.75930596	      1.24241342	     -8.39176458	    -13.19569560	     43.97290425	     92.71106608	     -3.80627426	     -3.25207642	    -12.31337466	     35.80212362	     99.35258702
      0.54000000	      0.28389377	     -0.59344638	     -1.86050226	      0.48655715	      1.11384717	     -0.17575624	    -11.27343805	      7.49596613	      2.47659036	      4.76824221	      0.08322153	     18.41782306	     -2.70623310	     -7.49998915	     26.92084559	      0.55879003	     -8.75116391	      5.01537343	      0.08753478	      2.80106655	     -1.21630222	     -7.49998915	    -11.99210156	      5.24551204	      2.72123348	      1.28061196	     -8.22423397	    -13.09458837	     44.02815780	     92.73390803	     -3.71290085	     -3.37664223	    -12.35915008	     35.67038580	     99.34258847
      0.55000000	      0.30330822	     -0.50309032	     -2.06784986	      0.49700207	      1.11338134	     -0.17443058	    -11.65425294	      7.37572728	      2.67047768	      5.22618089	      0.09121406	     18.85476339	     -2.82323749	     -7.49998925	     26.74104530	      0.53493504	     -8.76949370	      4.87335448	      0.08505608	      2.75606433	     -1.51892797	     -7.49998925	    -12.08512327	      4.89668269	      2.71030723	      1.30849972	     -8.03658604	    -12.96208117	     44.06137402	     92.73360539	     -3.59660736	     -3.51980936	    -12.38879202	     35.46472894	     99.29365476
      0.56000000	      0.41748754	     -0.41074938	     -2.28811158	      0.50771033	      1.11319004	     -0.17315527	    -12.11189308	      7.22521912	      2.87242160	      5.72049657	      0.09984150	     19.17395861	     -2.85686532	     -7.49998943	     26.43264481	      0.50752110	     -8.71450063	      4.89911910	      0.08550576	      2.51193877	     -2.06996360	     -7.49998943	    -12.30987403	      4.56012670	      2.77353687	      1.34746086	     -7.87867760	    -12.73348522	     43.99560920	     92.75750975	     -3.36152750	     -3.65896529	    -12.37684913	     35.06590319	     99.23589748
      0.57000000	      0.35768942	     -0.35380251	     -2.41646506	      0.51894531	      1.11259283	     -0.17212333	    -12.36266924	      7.12042390	      2.96507502	      6.25194577	      0.10911704	     19.27926493	     -2.85155418	     -7.49998951	     26.36939754	      0.46193514	     -8.62583347	      5.25124099	      0.09165145	      2.56657852	     -2.25747447	     -7.49998951	    -12.27549117	      4.28084510	      2.74032597	      1.21290745	     -7.65863738	    -12.64075759	     43.99196978	     92.70080487	     -3.35121528	     -3.80672186	    -12.38663065	     34.98722221	     99.12600887
      0.58000000	      0.50545209	     -0.18200077	     -2.66412852	      0.53050346	      1.11215093	     -0.17110421	    -12.76982409	      6.83766760	      3.21076180	      6.93090412	      0.12096710	     19.66957320	     -2.72687930	     -7.49998974	     25.94700759	      0.54016036	     -8.37829015	      5.54625207	      0.09680036	      2.23599516	     -3.18829097	     -7.49998974	    -12.45869717	      3.83346624	      2.79826307	      1.24640121	     -7.48703339	    -12.33719745	     43.70388906	     92.76542049	     -3.09530548	     -3.98113288	    -12.27714935	     34.32140114	     99.08177369
